<svg xmlns="http://www.w3.org/2000/svg" aria-hidden="true" style="position:absolute;width:0;height:0;overflow:hidden"><defs><symbol id="icon-menu" viewBox="0 0 32 32"><path fill="#e97522" d="M3.953 6.5a1.5 1.5 0 0 0 0 3v-3zm23.72 3a1.5 1.5 0 1 0 0-3v3zm-23.72 0h23.72v-3H3.953v3zM3.953 14.5a1.5 1.5 0 0 0 0 3v-3zm23.72 3a1.5 1.5 0 1 0 0-3v3zm-23.72 0h23.72v-3H3.953v3zM3.953 22.5a1.5 1.5 0 0 0 0 3v-3zm23.72 3a1.5 1.5 0 1 0 0-3v3zm-23.72 0h23.72v-3H3.953v3z" style="fill:var(--color1, #e97522)"/></symbol><symbol id="icon-arrow_left" viewBox="0 0 18 32"><path fill="none" stroke="#e97522" stroke-linecap="round" stroke-width="4.174" d="M15.304 29.217 3.16 17.074a1.29 1.29 0 0 1 0-1.824L15.304 3.106" style="stroke:var(--color1, #e97522)"/></symbol><symbol id="icon-arrow-right" viewBox="0 0 18 32"><path fill="none" stroke="#e97522" stroke-linecap="round" stroke-width="4.174" d="m2.783 2.783 12.144 12.143a1.29 1.29 0 0 1 0 1.824L2.783 28.894" style="stroke:var(--color1, #e97522)"/></symbol><symbol id="icon-call" viewBox="0 0 32 32"><path fill="#4a4a4a" d="M29.884 21.859c-2.132 0-4.195-.347-6.119-.971a1.694 1.694 0 0 0-1.751.416l-2.721 3.415c-4.905-2.34-9.499-6.76-11.943-11.839l3.38-2.877a1.768 1.768 0 0 0 .416-1.768 19.343 19.343 0 0 1-.971-6.119C10.175 1.18 9.395.4 8.459.4H2.462C1.526.4.399.816.399 2.116.399 18.219 13.798 31.6 29.883 31.6c1.231 0 1.716-1.092 1.716-2.045v-5.98c0-.936-.78-1.716-1.716-1.716z" style="fill:var(--color2, #4a4a4a)"/></symbol><symbol id="icon-FACEBOOK" viewBox="0 0 24 32"><path fill="#b1b1b1" d="M15.26 8.433v3.749h7.303l-1.168 5.781H15.26v14.038H7.03V17.963H.338v-5.781H7.03V7.779c0-5.014 3.93-7.778 9.954-7.778 2.882 0 5.894.394 5.894.394v4.916h-3.327c-3.272 0-4.291 1.54-4.291 3.123z" style="fill:var(--color3, #b1b1b1)"/></symbol><symbol id="icon-INSTAGRAM" viewBox="0 0 33 32"><path fill="#b1b1b1" d="M31.487 5.518c-.417-1.051-.967-1.942-1.868-2.834S27.818 1.248 26.756.835c-1.024-.394-2.2-.657-3.925-.741C21.105.019 20.556 0 16.166 0s-4.94.019-6.665.094C7.785.178 6.609.441 5.576.845c-1.062.413-1.963.957-2.863 1.849S1.262 4.477.845 5.528C.447 6.541.181 7.705.096 9.404.02 11.112.001 11.656.001 16.001s.019 4.889.095 6.597c.085 1.708.351 2.872.758 3.885.417 1.051.967 1.943 1.868 2.834s1.801 1.436 2.863 1.849c1.024.394 2.2.666 3.925.741s2.276.094 6.665.094c4.39 0 4.94-.019 6.665-.094 1.716-.075 2.892-.347 3.925-.741 1.062-.413 1.963-.957 2.863-1.849s1.451-1.783 1.868-2.834c.398-1.013.673-2.177.749-3.885s.095-2.252.095-6.597-.019-4.889-.095-6.597c-.085-1.699-.36-2.862-.759-3.885zM16.165 24.221c-4.589 0-8.305-3.679-8.305-8.221s3.717-8.221 8.305-8.221c4.589 0 8.305 3.679 8.305 8.221s-3.717 8.221-8.305 8.221zm8.637-14.837c-1.071 0-1.944-.863-1.944-1.924s.872-1.924 1.944-1.924c1.071 0 1.944.863 1.944 1.924a1.943 1.943 0 0 1-1.944 1.924zM21.56 16c0 2.947-2.408 5.33-5.385 5.33S10.79 18.946 10.79 16c0-2.947 2.408-5.33 5.385-5.33 2.968 0 5.385 2.384 5.385 5.33z" style="fill:var(--color3, #b1b1b1)"/></symbol><symbol id="icon-logo" viewBox="0 0 101 32"><path fill="#4a4a4a" d="M28.099 22.719c0 2.566-.857 4.716-2.572 6.449-1.713 1.732-3.844 2.599-6.393 2.6h-7.512V19.489h4.849v7.806h2.664c1.284 0 2.329-.418 3.138-1.255.809-.834 1.213-1.94 1.212-3.32 0-1.379-.404-2.487-1.212-3.323s-1.853-1.253-3.138-1.253H8.959a9.01 9.01 0 0 1-4.107-.921 8.737 8.737 0 0 1-2.285-1.677A8.738 8.738 0 0 1 .002 9.454v-.701c.071-2.418.926-4.454 2.565-6.108C4.28.913 6.411.046 8.96.046h7.512v12.281h-4.849V4.52H8.96c-1.284 0-2.329.418-3.138 1.253-.809.836-1.214 1.943-1.214 3.322 0 1.381.405 2.489 1.214 3.323.808.836 1.853 1.254 3.138 1.255h10.176c2.549 0 4.68.865 6.393 2.596 1.715 1.732 2.572 3.883 2.572 6.452z" style="fill:var(--color2, #4a4a4a)"/><path fill="#e97522" d="M45.53 0h-4.334l-4.592 13.647h3.857l.596-1.969h4.632l.596 1.969h3.837L45.529 0zm-3.559 8.675 1.392-4.64 1.412 4.64h-2.803zM56.804 0h-5.666v9.06h3.658V3.373h2.008c.44-.015.879.061 1.286.224s.776.409 1.08.722c.609.63.914 1.466.914 2.505s-.305 1.875-.914 2.505c-.304.313-.672.559-1.08.722s-.846.239-1.286.224h-5.666v3.373h5.666c1.922 0 3.528-.653 4.821-1.959s1.939-2.928 1.939-4.864-.646-3.558-1.938-4.864S58.727.002 56.805.002zM70.879 0h-5.666v3.373h5.666c.44-.015.879.061 1.286.224s.776.409 1.08.722c.609.631.914 1.466.914 2.505s-.305 1.875-.914 2.505c-.304.313-.672.559-1.08.722s-.846.239-1.286.224h-2.008V4.588h-3.658v9.06h5.666c1.921 0 3.528-.653 4.821-1.959s1.939-2.928 1.938-4.864c0-1.936-.646-3.558-1.938-4.864S72.801.002 70.879.002z" style="fill:var(--color1, #e97522)"/><path fill="#b1b1b1" d="M42.011 18.061c.651-.017 1.3.093 1.907.324s1.162.578 1.632 1.021c.954.897 1.431 2.041 1.431 3.431s-.477 2.535-1.431 3.431c-.47.443-1.024.79-1.632 1.021s-1.256.341-1.907.324h-1.849v4.094h-3.558V18.06h5.407zm0 6.239c.187.004.373-.031.546-.101s.329-.176.458-.309a1.428 1.428 0 0 0 .408-1.053 1.391 1.391 0 0 0-.868-1.345 1.387 1.387 0 0 0-.544-.098h-1.849v2.905h1.849zM55.847 18.059h3.539v13.647h-3.539v-5.244H51.93v5.244h-3.559V18.059h3.559v5.049h3.917v-5.049zM73.533 29.944c-1.388 1.319-3.246 2.057-5.179 2.057s-3.791-.738-5.179-2.057c-.689-.655-1.232-1.443-1.596-2.313s-.542-1.805-.521-2.746c-.021-.941.157-1.876.521-2.746s.908-1.658 1.596-2.313c1.388-1.319 3.246-2.056 5.179-2.056s3.791.737 5.179 2.056c.689.655 1.232 1.443 1.596 2.313s.542 1.805.521 2.746c.021.941-.157 1.876-.521 2.746s-.908 1.658-1.596 2.313zm-7.863-2.398a4.026 4.026 0 0 0 5.017.624c.78-.485 1.362-1.221 1.648-2.082s.256-1.792-.084-2.634c-.34-.842-.968-1.541-1.777-1.977s-1.748-.582-2.654-.413c-.907.17-1.725.644-2.313 1.341s-.91 1.574-.91 2.48c-.017.492.07.982.255 1.44s.464.873.819 1.221zM86.147 18.059v3.373h-3.44v10.274h-3.559V21.432h-3.44v-3.373h10.438zM98.683 29.944c-1.388 1.319-3.246 2.057-5.179 2.057s-3.791-.738-5.179-2.057c-.689-.655-1.232-1.443-1.596-2.313s-.542-1.805-.521-2.746c-.021-.941.157-1.876.521-2.746s.908-1.658 1.596-2.313c1.388-1.319 3.246-2.056 5.179-2.056s3.791.737 5.179 2.056c.689.655 1.232 1.443 1.596 2.313s.542 1.805.521 2.746c.021.941-.157 1.876-.521 2.746s-.908 1.658-1.596 2.313zm-7.863-2.398a4.028 4.028 0 0 0 5.017.624c.78-.485 1.362-1.221 1.648-2.082s.256-1.792-.084-2.634c-.34-.842-.968-1.541-1.777-1.977s-1.748-.582-2.654-.413c-.907.17-1.725.644-2.313 1.341s-.91 1.574-.91 2.48c-.017.492.07.982.255 1.44s.464.873.819 1.221z" style="fill:var(--color3, #b1b1b1)"/></symbol><symbol id="icon-TELEGRAM" viewBox="0 0 40 32"><path fill="#b1b1b1" d="M39.948 3.009c-.098 1.304-.909 5.862-1.707 10.782l-2.517 14.603s-.197 2.143-1.916 2.506c-1.707.374-4.531-1.304-5.035-1.678-.405-.283-7.552-4.467-10.168-6.508-.7-.556-1.511-1.678.098-2.971 3.623-3.073 7.958-6.882 10.573-9.297 1.204-1.111 2.419-3.719-2.616-.556l-14.196 8.832s-1.609.93-4.63.091-6.545-1.95-6.545-1.95-2.419-1.395 1.707-2.88L26.464 5.06c2.321-.93 10.168-3.9 10.168-3.9s3.623-1.304 3.316 1.848z" style="fill:var(--color3, #b1b1b1)"/></symbol><symbol id="icon-TWITTER" viewBox="0 0 35 32"><path fill="#b1b1b1" d="M30.682 5.721a13.304 13.304 0 0 0 4.069-1.196 15.194 15.194 0 0 1-3.541 3.932c.01.321.021.653.021.986 0 10.024-7.133 21.587-20.179 21.587-4.007 0-7.734-1.252-10.871-3.411.559.066 1.118.1 1.688.1 3.323 0 6.378-1.218 8.811-3.245-3.106-.066-5.725-2.26-6.626-5.272.435.089.88.133 1.336.133a6.58 6.58 0 0 0 1.874-.266c-3.241-.698-5.694-3.766-5.694-7.443v-.1c.953.565 2.05.908 3.21.953-1.905-1.362-3.158-3.688-3.158-6.313 0-1.385.352-2.692.963-3.81 3.499 4.597 8.728 7.609 14.619 7.931a7.889 7.889 0 0 1-.186-1.728c0-4.187 3.178-7.587 7.092-7.587 2.04 0 3.883.919 5.177 2.392a13.802 13.802 0 0 0 4.504-1.839c-.518 1.772-1.636 3.256-3.106 4.198z" style="fill:var(--color3, #b1b1b1)"/></symbol></defs></svg>